<?xml version="1.0" standalone="no"?><!DOCTYPE svg PUBLIC "-//W3C//DTD SVG 1.1//EN" "http://www.w3.org/Graphics/SVG/1.1/DTD/svg11.dtd"><svg t="1522120844238" class="icon" style="" viewBox="0 0 1024 1024" version="1.1" xmlns="http://www.w3.org/2000/svg" p-id="18792" xmlns:xlink="http://www.w3.org/1999/xlink" width="200" height="200"><defs><style type="text/css"></style></defs><path d="M370.3 550.5c-4.8 0-9.4-1.5-13.2-4.4l-107-81.2c-4.6-3.5-7.6-8.6-8.4-14.4s0.7-11.5 4.2-16.2l16.2-21.4c1.1-1.5 2.7-2.6 4.5-3.1l35.4-11.1 135.2-178.1c1.4-1.9 3.5-3.2 5.9-3.6l37.9-6c0.6-0.1 1.2-0.2 1.8-0.2l31.4-41.4c4.7-6.1 11.7-9.6 19.4-9.6 5.4 0 10.5 1.7 14.7 5l17.5 13.3c5.2 3.9 8.5 9.7 9.4 16.1 0.9 6.5-0.8 12.9-4.7 18.1l-31.4 41.4 0.3 1.8 4.5 37.9c0.3 2.3-0.2 4.7-1.7 6.7L406.9 478.2l-1.1 37.1c-0.1 1.9-0.7 3.7-1.8 5.2l-16.2 21.4c-4.3 5.4-10.6 8.6-17.5 8.6z" fill="#66C1FF" p-id="18793"></path><path d="M533.7 168.7c3.2 0 6.5 1 9.3 3.1l17.5 13.3c6.8 5.1 8.1 14.8 3 21.6l-34.2 45c0.6 1.5 1 3.1 1.2 4.7l4.5 38.1-137 180.6-1.2 39.9-16.2 21.4c-2.5 3.3-6.3 5.1-10.2 5.1-2.7 0-5.4-0.9-7.7-2.6l-107-81.2c-5.6-4.3-6.7-12.3-2.5-18l16.2-21.4 38.1-11.9 137-180.5 37.9-5.9c0.9-0.1 1.8-0.2 2.7-0.2 0.7 0 1.5 0 2.2 0.1l34.2-45c2.9-4.1 7.5-6.2 12.2-6.2m0-18c-10.4 0-20.3 4.9-26.6 13.2l-29.2 38.5-36.2 5.7c-4.8 0.8-9 3.4-11.7 7.2L296.6 390.9 264 401.1c-3.6 1.1-6.7 3.3-9 6.3l-16.2 21.4c-5 6.6-7.1 14.7-6 22.8 1.1 8.2 5.3 15.4 11.9 20.4l107 81.2c5.4 4.1 11.8 6.3 18.6 6.3 9.6 0 18.8-4.6 24.6-12.2l16.2-21.4c2.3-3 3.5-6.6 3.7-10.3l1.1-34.2 133.5-176c2.9-3.8 4.1-8.6 3.5-13.3l-4.2-36 29.2-38.5c5.4-7.1 7.7-15.9 6.5-24.7-1.2-8.8-5.8-16.7-12.9-22.1L554 157.5c-6-4.4-13-6.8-20.3-6.8z" fill="#330867" p-id="18794"></path><path d="M459.3 775.5H233.5l50.8-90.1h124.1z" fill="#FFE08A" p-id="18795"></path><path d="M459.3 778.5H233.5c-1.1 0-2.1-0.6-2.6-1.5s-0.5-2.1 0-3l50.9-90.1c0.5-0.9 1.5-1.5 2.6-1.5h124.1c1.1 0 2.1 0.6 2.6 1.5L462 774c0.5 0.9 0.5 2.1 0 3-0.6 0.9-1.6 1.5-2.7 1.5z m-220.7-6h215.6l-47.5-84.1H286.1l-47.5 84.1z" fill="#330867" p-id="18796"></path><path d="M531.2 824.9H161.5c-19.5 0-35.3-15.8-35.3-35.3 0-19.5 15.8-35.3 35.3-35.3h369.7c19.5 0 35.3 15.8 35.3 35.3 0 19.5-15.8 35.3-35.3 35.3z" fill="#EAB236" p-id="18797"></path><path d="M531.2 833.9H161.5c-24.4 0-44.3-19.9-44.3-44.3s19.9-44.3 44.3-44.3h369.7c24.4 0 44.3 19.9 44.3 44.3 0 24.5-19.8 44.3-44.3 44.3z m-369.7-70.5c-14.5 0-26.3 11.8-26.3 26.3S147 816 161.5 816h369.7c14.5 0 26.3-11.8 26.3-26.3s-11.8-26.3-26.3-26.3H161.5z" fill="#330867" p-id="18798"></path><path d="M388.3 707.1c-34.5 0-57.4-4.2-72.2-13.3-11.8-7.2-15.4-22.6-8.2-34.4 7.2-11.8 22.6-15.4 34.4-8.2 1.6 1 11.4 5.9 46 5.9 78.9 0 143.1-78.1 143.1-174.1 0-30.7-6.7-60.9-19.3-87.3-6-12.5-0.7-27.4 11.8-33.3 12.4-6 27.4-0.7 33.3 11.8 15.9 33.1 24.2 70.8 24.2 108.9 0 59.1-19.6 114.8-55.1 156.9-36.6 43.2-85.6 67.1-138 67.1z" fill="#DD365E" p-id="18799"></path><path d="M388.3 710.1c-35 0-58.5-4.4-73.8-13.8-6.4-3.9-10.8-10.1-12.6-17.4-1.7-7.3-0.5-14.8 3.4-21.2 3.9-6.4 10.1-10.8 17.4-12.6 7.3-1.7 14.8-0.5 21.2 3.4 0.9 0.6 9.9 5.5 44.5 5.5 77.2 0 140.1-76.8 140.1-171.1 0-30.3-6.6-60-19-86-6.7-13.9-0.8-30.7 13.2-37.3 6.7-3.2 14.3-3.6 21.4-1.2 7.1 2.5 12.7 7.6 16 14.3 16.1 33.5 24.5 71.6 24.5 110.2 0 59.8-19.8 116.2-55.8 158.9-37.4 44-87.2 68.3-140.5 68.3z m-59-59.7c-1.7 0-3.4 0.2-5.1 0.6-5.7 1.4-10.6 4.9-13.6 9.9-3.1 5-4 10.9-2.7 16.6 1.4 5.7 4.9 10.6 9.9 13.6 14.3 8.8 36.8 12.9 70.6 12.9 51.5 0 99.7-23.5 135.7-66.1 35.1-41.6 54.4-96.6 54.4-155 0-37.7-8.3-74.9-23.9-107.6-2.5-5.3-7-9.3-12.5-11.2-5.5-2-11.5-1.6-16.8 0.9-10.9 5.2-15.6 18.4-10.3 29.3 12.8 26.8 19.6 57.5 19.6 88.6 0 97.7-65.5 177.1-146.1 177.1-34.5 0-45.2-4.9-47.6-6.4-3.7-2.1-7.6-3.2-11.6-3.2z" fill="#330867" p-id="18800"></path><path d="M304.4 689.6c-1.9 0-3.8-0.6-5.4-1.8L136.7 564.2c-4-3-4.7-8.7-1.7-12.6l30-39.4c1.4-1.9 3.6-3.1 6-3.5 0.4-0.1 0.8-0.1 1.2-0.1 2 0 3.9 0.6 5.5 1.8L340 634c1.9 1.4 3.1 3.6 3.5 6s-0.3 4.8-1.8 6.7l-30 39.4c-1.9 2.3-4.6 3.5-7.3 3.5z" fill="#F7D7FF" p-id="18801"></path><path d="M172.1 517.6l162.3 123.6-30 39.4-162.3-123.5 30-39.5m0.1-18c-5.4 0-10.8 2.4-14.3 7.1l-30 39.4c-2.9 3.8-4.2 8.6-3.5 13.3 0.6 4.7 3.1 9 6.9 11.9L293.5 695c3.2 2.4 7 3.7 10.9 3.7 0.8 0 1.6-0.1 2.4-0.2 4.7-0.6 9-3.1 11.9-6.9l30-39.4c2.9-3.8 4.2-8.6 3.5-13.3-0.6-4.7-3.1-9-6.9-11.9L183.1 503.3c-3.3-2.5-7.1-3.7-10.9-3.7z" fill="#330867" p-id="18802"></path><path d="M495.8 365.2m-53.2 0a53.2 53.2 0 1 0 106.4 0 53.2 53.2 0 1 0-106.4 0Z" fill="#66C1FF" p-id="18803"></path><path d="M495.8 321c24.4 0 44.2 19.8 44.2 44.2s-19.8 44.2-44.2 44.2-44.2-19.8-44.2-44.2 19.8-44.2 44.2-44.2m0-18c-34.3 0-62.2 27.9-62.2 62.2 0 34.3 27.9 62.2 62.2 62.2 34.3 0 62.2-27.9 62.2-62.2 0-34.3-27.9-62.2-62.2-62.2z" fill="#FC6B79" p-id="18804"></path><path d="M631.2 863.7c-12.1 0-23-6.1-29.3-16.4-6.3-10.3-6.8-22.9-1.3-33.6L695 629.5v-97.6c-12.9-0.2-23.4-10.7-23.4-23.7 0-13.1 10.6-23.7 23.7-23.7h113.1c13.1 0 23.7 10.6 23.7 23.7 0 13-10.5 23.5-23.4 23.7v97.6L903 813.7c5.5 10.7 5 23.3-1.3 33.6s-17.3 16.4-29.3 16.4H631.2z" fill="#66C1FF" p-id="18805"></path><path d="M808.3 493.5c8.1 0 14.7 6.6 14.7 14.7s-6.6 14.7-14.7 14.7h-8.7v108.8l95.3 186.1c8.6 16.9-3.6 36.9-22.6 36.9H631.2c-19 0-31.2-20.1-22.6-36.9L704 631.7V522.9h-8.7c-8.1 0-14.7-6.6-14.7-14.7s6.6-14.7 14.7-14.7h113m0-18H695.2c-18 0-32.7 14.7-32.7 32.7 0 14.8 9.9 27.3 23.4 31.4v87.8l-93.3 182.2c-6.9 13.6-6.3 29.4 1.6 42.4s21.8 20.7 37 20.7h241.2c15.2 0 29.1-7.8 37-20.7s8.5-28.8 1.6-42.4l-93.3-182.2v-87.8c13.5-4 23.4-16.6 23.4-31.4-0.1-18-14.7-32.7-32.8-32.7z" fill="#330867" p-id="18806"></path><path d="M799.6 612.6v-89.7h8.7c8.1 0 14.7-6.6 14.7-14.7s-6.6-14.7-14.7-14.7H695.2c-8.1 0-14.7 6.6-14.7 14.7s6.6 14.7 14.7 14.7h8.7v89.7h95.7z" fill="#FFFFFF" p-id="18807"></path><path d="M398 475.1l137-180.5-4.5-38.1c-0.2-1.6-0.6-3.2-1.2-4.7l34.2-45c5.1-6.8 3.8-16.4-3-21.6 0 0-187.9 293-304.9 272.6l107 81.2c5.6 4.3 13.7 3.2 18-2.5l16.2-21.4 1.2-40z" fill="#18A3D3" p-id="18808"></path><path d="M459.3 775.5H233.5l50.8-90.1h124.1z" fill="#FFE08A" p-id="18809"></path><path d="M464.4 778.5H228.3l54.3-96.1h127.6l54.2 96.1z m-225.8-6h215.6l-47.5-84.1H286.1l-47.5 84.1z" fill="#330867" p-id="18810"></path><path d="M531.2 824.9H161.5c-19.5 0-35.3-15.8-35.3-35.3 0-19.5 15.8-35.3 35.3-35.3h369.7c19.5 0 35.3 15.8 35.3 35.3 0 19.5-15.8 35.3-35.3 35.3z" fill="#EAB236" p-id="18811"></path><path d="M531.2 833.9H161.5c-24.4 0-44.3-19.9-44.3-44.3s19.9-44.3 44.3-44.3h369.7c24.4 0 44.3 19.9 44.3 44.3 0 24.5-19.8 44.3-44.3 44.3z m-369.7-70.5c-14.5 0-26.3 11.8-26.3 26.3S147 816 161.5 816h369.7c14.5 0 26.3-11.8 26.3-26.3s-11.8-26.3-26.3-26.3H161.5z" fill="#330867" p-id="18812"></path><path d="M388.3 707.1c-34.5 0-57.4-4.2-72.2-13.3-11.8-7.2-15.4-22.6-8.2-34.4 7.2-11.8 22.6-15.4 34.4-8.2 1.6 1 11.4 5.9 46 5.9 78.9 0 143.1-78.1 143.1-174.1 0-30.7-6.7-60.9-19.3-87.3-6-12.5-0.7-27.4 11.8-33.3 12.4-6 27.4-0.7 33.3 11.8 15.9 33.1 24.2 70.8 24.2 108.9 0 59.1-19.6 114.8-55.1 156.9-36.6 43.2-85.6 67.1-138 67.1z" fill="#DD365E" p-id="18813"></path><path d="M388.3 710.1c-35 0-58.5-4.4-73.8-13.8-6.4-3.9-10.8-10.1-12.6-17.4-1.7-7.3-0.5-14.8 3.4-21.2 3.9-6.4 10.1-10.8 17.4-12.6 7.3-1.7 14.8-0.5 21.2 3.4 0.9 0.6 9.9 5.5 44.5 5.5 77.2 0 140.1-76.8 140.1-171.1 0-30.3-6.6-60-19-86-6.7-13.9-0.8-30.7 13.2-37.3 6.7-3.2 14.3-3.6 21.4-1.2 7.1 2.5 12.7 7.6 16 14.3 16.1 33.5 24.5 71.6 24.5 110.2 0 59.8-19.8 116.2-55.8 158.9-37.4 44-87.2 68.3-140.5 68.3z m-59-59.7c-1.7 0-3.4 0.2-5.1 0.6-5.7 1.4-10.6 4.9-13.6 9.9-3.1 5-4 10.9-2.7 16.6 1.4 5.7 4.9 10.6 9.9 13.6 14.3 8.8 36.8 12.9 70.6 12.9 51.5 0 99.7-23.5 135.7-66.1 35.1-41.6 54.4-96.6 54.4-155 0-37.7-8.3-74.9-23.9-107.6-2.5-5.3-7-9.3-12.5-11.2-5.5-2-11.5-1.6-16.8 0.9-10.9 5.2-15.6 18.4-10.3 29.3 12.8 26.8 19.6 57.5 19.6 88.6 0 97.7-65.5 177.1-146.1 177.1-34.5 0-45.2-4.9-47.6-6.4-3.7-2.1-7.6-3.2-11.6-3.2z" fill="#330867" p-id="18814"></path><path d="M304.4 689.6c-1.9 0-3.8-0.6-5.4-1.8L136.7 564.2c-4-3-4.7-8.7-1.7-12.6l30-39.4c1.4-1.9 3.6-3.1 6-3.5 0.4-0.1 0.8-0.1 1.2-0.1 2 0 3.9 0.6 5.5 1.8L340 634c1.9 1.4 3.1 3.6 3.5 6s-0.3 4.8-1.8 6.7l-30 39.4c-1.9 2.3-4.6 3.5-7.3 3.5z" fill="#F7D7FF" p-id="18815"></path><path d="M172.1 517.6l162.3 123.6-30 39.4-162.3-123.5 30-39.5m0.1-18c-5.4 0-10.8 2.4-14.3 7.1l-30 39.4c-2.9 3.8-4.2 8.6-3.5 13.3 0.6 4.7 3.1 9 6.9 11.9L293.5 695c3.2 2.4 7 3.7 10.9 3.7 0.8 0 1.6-0.1 2.4-0.2 4.7-0.6 9-3.1 11.9-6.9l30-39.4c2.9-3.8 4.2-8.6 3.5-13.3-0.6-4.7-3.1-9-6.9-11.9L183.1 503.3c-3.3-2.5-7.1-3.7-10.9-3.7z" fill="#330867" p-id="18816"></path><path d="M495.8 365.2m-53.2 0a53.2 53.2 0 1 0 106.4 0 53.2 53.2 0 1 0-106.4 0Z" fill="#F7D7FF" p-id="18817"></path><path d="M495.8 321c24.4 0 44.2 19.8 44.2 44.2s-19.8 44.2-44.2 44.2-44.2-19.8-44.2-44.2 19.8-44.2 44.2-44.2m0-18c-34.3 0-62.2 27.9-62.2 62.2 0 34.3 27.9 62.2 62.2 62.2 34.3 0 62.2-27.9 62.2-62.2 0-34.3-27.9-62.2-62.2-62.2z" fill="#FC6B79" p-id="18818"></path><path d="M716 785.9m-10.4 0a10.4 10.4 0 1 0 20.8 0 10.4 10.4 0 1 0-20.8 0Z" fill="#FFFFFF" p-id="18819"></path><path d="M778.2 757.7m-14.4 0a14.4 14.4 0 1 0 28.8 0 14.4 14.4 0 1 0-28.8 0Z" fill="#FFFFFF" p-id="18820"></path><path d="M731.7 721m-4.6 0a4.6 4.6 0 1 0 9.2 0 4.6 4.6 0 1 0-9.2 0Z" fill="#FFFFFF" p-id="18821"></path><path d="M754.4 669.5m-8.6 0a8.6 8.6 0 1 0 17.2 0 8.6 8.6 0 1 0-17.2 0Z" fill="#FFFFFF" p-id="18822"></path><path d="M768.3 819.1m-7.2 0a7.2 7.2 0 1 0 14.4 0 7.2 7.2 0 1 0-14.4 0Z" fill="#FFFFFF" p-id="18823"></path><path d="M813.4 844m-3.8 0a3.8 3.8 0 1 0 7.6 0 3.8 3.8 0 1 0-7.6 0Z" fill="#FFFFFF" p-id="18824"></path></svg>