<?xml version="1.0" standalone="no"?><!DOCTYPE svg PUBLIC "-//W3C//DTD SVG 1.1//EN" "http://www.w3.org/Graphics/SVG/1.1/DTD/svg11.dtd"><svg t="1522119220465" class="icon" style="" viewBox="0 0 1024 1024" version="1.1" xmlns="http://www.w3.org/2000/svg" p-id="2660" xmlns:xlink="http://www.w3.org/1999/xlink" width="200" height="200"><defs><style type="text/css"></style></defs><path d="M516.226788 431.050265h-84.718257V389.677624h84.718257v41.373655z" fill="#43525B" p-id="2661"></path><path d="M592.469164 431.050265h-76.242376V389.677624h76.242376v41.373655z" fill="#FFAB00" p-id="2662"></path><path d="M516.226788 356.504079H380.680618v-41.372641h135.54617v41.373655z" fill="#43525B" p-id="2663"></path><path d="M643.317354 356.504079H516.226788v-41.372641h127.090566v41.373655z" fill="#FFAB00" p-id="2664"></path><path d="M516.226788 281.949782H329.842566v-41.373655h186.384222v41.373655z" fill="#43525B" p-id="2665"></path><path d="M694.12499 281.949782H516.226788v-41.373655H694.123976v41.373655z" fill="#FFAB00" p-id="2666"></path><path d="M516.226788 207.403596H262.085196V166.029941h254.141592v41.373655z" fill="#43525B" p-id="2667"></path><path d="M761.883374 207.403596H516.226788V166.029941h245.656586v41.373655z" fill="#FFAB00" p-id="2668"></path><path d="M516.226788 132.868562H228.206004V91.494907h288.020784v41.373655z" fill="#43525B" p-id="2669"></path><path d="M795.762566 132.868562H516.226788V91.494907h279.535778v41.373655z" fill="#FFAB00" p-id="2670"></path><path d="M516.226788 58.32339H194.317687V16.949735h321.909101v41.373655z" fill="#43525B" p-id="2671"></path><path d="M829.661022 58.32339h-313.435248V16.949735h313.435248v41.373655z" fill="#FFAB00" p-id="2672"></path><path d="M516.226788 634.322376h-84.718257v-41.372641h84.718257v41.372641z" fill="#43525B" p-id="2673"></path><path d="M592.469164 634.322376h-76.242376v-41.372641h76.242376v41.372641z" fill="#FFAB00" p-id="2674"></path><path d="M516.226788 708.88884H380.680618V667.516198h135.54617v41.373655z" fill="#43525B" p-id="2675"></path><path d="M643.317354 708.88884H516.226788V667.516198h127.090566v41.373655z" fill="#FFAB00" p-id="2676"></path><path d="M516.226788 783.434012H329.842566v-41.373656h186.384222v41.373656z" fill="#43525B" p-id="2677"></path><path d="M694.12499 783.434012H516.226788v-41.373656H694.123976v41.373656z" fill="#FFAB00" p-id="2678"></path><path d="M516.226788 857.980198H295.964388v-41.374669h220.261386v41.374669z" fill="#43525B" p-id="2679"></path><path d="M728.004182 857.980198H516.226788v-41.374669h211.777394v41.374669z" fill="#FFAB00" p-id="2680"></path><path d="M516.226788 932.524356h-237.20301v-41.372641h237.20301v41.372641z" fill="#43525B" p-id="2681"></path><path d="M744.93364 932.524356h-228.706852v-41.372641h228.706852v41.372641z" fill="#FFAB00" p-id="2682"></path><path d="M516.226788 1007.071556H262.085196v-41.374669h254.141592v41.374669z" fill="#43525B" p-id="2683"></path><path d="M761.883374 1007.071556H516.226788v-41.374669h245.656586v41.374669z" fill="#FFAB00" p-id="2684"></path><path d="M763.923263 1024h-0.020277c-11.414051 0-20.66655-9.252499-20.66655-20.686828 0.040554-165.837307-190.98918-412.807857-344.474614-611.232697C271.862875 228.020467 171.630511 98.433774 171.630511 20.686828 171.630511 9.262638 180.893149 0 192.317339 0s20.686828 9.262638 20.686827 20.686828c0 63.606622 106.13101 200.818566 218.485101 346.081584C597.014305 580.767176 784.651659 823.352776 784.611105 1003.312158c0 11.434329-9.272776 20.686828-20.686828 20.686828z" fill="#43525B" p-id="2685"></path><path d="M260.034154 1024c-11.42419 0-20.685814-9.252499-20.685813-20.686828-0.030416-179.960396 187.594772-422.524705 353.141101-636.535635C704.853671 221.514519 810.992792 84.302574 810.992792 20.685814 810.993806 9.263651 820.26861 0 831.680634 0c11.435343 0 20.687842 9.262638 20.687841 20.686828 0 77.746947-100.242503 207.343778-227.151588 371.413924C471.721315 590.524578 280.69158 837.474851 280.721996 1003.313172c0 11.434329-9.263651 20.686828-20.687842 20.686828z" fill="#43525B" p-id="2686"></path></svg>