<?xml version="1.0" encoding="utf-8"?>
<!-- Generator: Adobe Illustrator 21.0.0, SVG Export Plug-In . SVG Version: 6.00 Build 0)  -->
<svg version="1.1" id="图层_1" xmlns="http://www.w3.org/2000/svg" xmlns:xlink="http://www.w3.org/1999/xlink" x="0px" y="0px"
	 viewBox="0 0 640 480" style="enable-background:new 0 0 640 480;" xml:space="preserve">
<style type="text/css">
	.st0{fill:#77C34F;stroke:#000000;stroke-miterlimit:10;}
	.st1{fill:#F16E6D;stroke:#000000;stroke-miterlimit:10;}
	.st2{fill:#637888;stroke:#000000;stroke-miterlimit:10;}
	.st3{fill:#53C2EF;stroke:#000000;stroke-miterlimit:10;}
	.st4{fill:#FFFFFF;stroke:#000000;stroke-miterlimit:10;}
</style>
<path class="st0" d="M580.6,287.2h-162c-21.9,0-39.5-16.2-39.5-35.8V104.5c0-19.7,17.8-35.8,39.5-35.8h162.2
	c21.9,0,39.5,16.2,39.5,35.8v147C620.1,271.2,602.5,287.2,580.6,287.2z"/>
<path class="st1" d="M218.5,441.5h-154c-20.7,0-37.5-16.7-37.5-37.3v-153c0-20.6,17-37.3,37.5-37.3h153.9
	c20.7,0,37.5,16.7,37.5,37.3v153C255.9,424.6,238.8,441.5,218.5,441.5z"/>
<path class="st2" d="M368.2,240h-177c-23.8,0-43-15.9-43-35.6V58.5c0-19.7,19.6-35.6,43-35.6h177c23.8,0,43,15.9,43,35.6v146
	C411.3,224.1,391.7,240,368.2,240z"/>
<path class="st3" d="M453.1,472H305.2c-19.9,0-36-16.9-36-37.4V281.4c0-20.5,16.1-37.4,36-37.4h147.9c19.9,0,36,16.9,36,37.4v153.3
	C489.2,455.3,473,472,453.1,472z"/>
<polygon class="st4" points="257.4,45.5 195,203 225.9,203 257.4,138.8 289.6,138.8 313.9,203 343.1,203 299.7,45.5 "/>
<path class="st2" d="M281,68.7c-6.2,17.9-12.3,35.6-18.8,53.8c10.3,0,20.5,0,30.8,0C289.3,104.3,285.2,86.6,281,68.7z"/>
<polygon class="st4" points="66,261.6 66,295.3 127.4,295.3 127.4,408 162.1,408 162.1,295.3 216.4,295.3 216.4,261.6 "/>
<path class="st4" d="M459,282.5c-5.1,10.4-9.9,20.9-15,31.3c-25.6-19.9-59.6-15.6-76.8,6c-14.3,18.1-15,45-3.6,63.1
	c15.7,25.1,54.1,33.8,86.3,12c5.5,8.9,11.4,18.4,16.9,27.6c-42,37.4-104.1,30.5-135-9.7c-26.8-35.2-26.5-91,7.7-125.8
	C371.5,253.3,424,251.6,459,282.5z"/>
<path class="st4" d="M594.7,124.9c-39.7-26.4-92.3-22.7-117,1.9c-23.6,23.6-23.1,66.7,4.7,83.6c15.6,9.5,44.5,13.4,62.8,0
	c14.5-10.7,15.3-27.2,15.3-30.7l-30.9,0.8c0.3-6.2,0.8-12.6,1.1-18.7c21.6,0.2,43.4,0.6,65,0.8c-0.3,26.9-0.8,53.9-1.1,80.6
	c-5.5-0.2-11.3-0.6-17-0.8c1.1-49.2,0-62.7-1.7-62.7c-2.8-0.2,1.5,36.4-23.6,53.9c-22.8,15.5-66.5,13.6-91.2-5.1
	c-4.2-3.1-41.2-32-35.6-74.5c3.6-26.4,21.6-43.8,28.4-49.9c7.8-5.3,29.8-19.4,62.8-21c43.7-1.9,73.5,19.4,79.3,23.8
	C595.6,112.9,595.1,119,594.7,124.9z"/>
<path class="st0" d="M460,176.4"/>
<path class="st0" d="M461,185.7"/>
</svg>
