<?xml version="1.0" standalone="no"?><!DOCTYPE svg PUBLIC "-//W3C//DTD SVG 1.1//EN" "http://www.w3.org/Graphics/SVG/1.1/DTD/svg11.dtd"><svg t="1522119443633" class="icon" style="" viewBox="0 0 1082 1024" version="1.1" xmlns="http://www.w3.org/2000/svg" p-id="6384" xmlns:xlink="http://www.w3.org/1999/xlink" width="211.328125" height="200"><defs><style type="text/css"></style></defs><path d="M936.733377 441.931541h-139.331147a44.292197 44.292197 0 0 0-41.329312 28.369836c-50.134033 130.115148-145.609443 301.526033-216.802623 421.073836v129.661902h397.463082a44.292197 44.292197 0 0 0 44.292197-44.292197V486.223738a44.292197 44.292197 0 0 0-44.283804-44.292197z" fill="#F59D00" p-id="6385"></path><path d="M1032.141639 530.515934H797.385443c-31.080918 0-52.49259-31.248787-41.320918-60.22295 26.909377-69.799869 32.558164-106.613508 32.558164-125.204984a248.781639 248.781639 0 0 0-64.235017-167.021115c-25.667148-28.436984-5.422164-73.97141 32.877115-73.97141h156.755934a44.292197 44.292197 0 0 1 41.807738 29.67082l118.112525 337.844459c10.055344 28.772721-11.347934 58.90518-41.816132 58.90518z" fill="#39A3DB" p-id="6386"></path><path d="M539.278689 1021.037115H141.815607a44.292197 44.292197 0 0 1-44.292197-44.283804V486.223738a44.292197 44.292197 0 0 1 44.292197-44.292197h139.339541a44.292197 44.292197 0 0 1 41.329311 28.369836c28.957377 75.146492 75.683672 171.201049 138.894689 285.502951 60.734951 109.81141 114.90623 196.591213 115.451803 197.464131 18.40682 29.444197-2.795016 67.777049-37.552262 67.777049z" fill="#F2C500" p-id="6387"></path><path d="M281.155148 530.515934H46.424131c-30.493377 0-51.871475-30.149246-41.816131-58.90518L122.712131 133.766295a44.292197 44.292197 0 0 1 41.816131-29.679213h156.755935c38.307672 0 58.535869 45.551213 32.868721 73.979803a248.773246 248.773246 0 0 0-64.226623 167.021115c0 18.591475 5.648787 55.396721 32.558164 125.204984 11.171672 28.990951-10.273574 60.222951-41.329311 60.22295z" fill="#48AEE2" p-id="6388"></path><path d="M790.158689 118.708459A338.465574 338.465574 0 0 0 539.278689 7.159607 338.45718 338.45718 0 0 0 288.398689 118.691672a337.214951 337.214951 0 0 0-87.065181 226.387935c0 38.509115 12.590164 89.885377 38.483935 157.058098 30.401049 78.915148 78.864787 178.688 144.031475 296.523541 121.008262 218.783475 127.529967 222.367475 155.421377 222.367475 27.857836 0 34.387934-3.55882 155.412984-222.367475 65.166689-117.843934 113.622033-217.6 144.031475-296.515148 25.89377-67.181115 38.483934-118.557377 38.483935-157.066491A337.172984 337.172984 0 0 0 790.158689 118.708459zM583.562492 575.882492a44.292197 44.292197 0 0 1-88.584394 0V396.564984a44.292197 44.292197 0 0 1 88.584394 0v179.317508z m0-308.542951a44.292197 44.292197 0 0 1-88.584394 0v-42.806557a44.292197 44.292197 0 0 1 88.584394 0v42.806557z" fill="#FF5E5B" p-id="6389"></path><path d="M790.158689 118.708459A338.465574 338.465574 0 0 0 539.278689 7.159607h-0.016787v173.072786h0.016787a44.292197 44.292197 0 0 1 44.283803 44.292197v42.814951a44.292197 44.292197 0 0 1-44.283803 44.292197h-0.008394v40.649442a44.292197 44.292197 0 0 1 44.292197 44.292197v179.317508a44.292197 44.292197 0 0 1-44.283803 44.283804h-0.008394v400.870819c27.86623 0 34.396328-3.55882 155.421377-222.367475 65.166689-117.843934 113.630426-217.608393 144.031476-296.523541 25.89377-67.172721 38.483934-118.548984 38.483934-157.066492A337.181377 337.181377 0 0 0 790.158689 118.708459z" fill="#FF423D" p-id="6390"></path></svg>